#define lightning_width 8
#define lightning_height 8
static unsigned char lightning_bits[] = {
    0x10, 0x18, 0x0C, 0x7E, 0x7E, 0x30, 0x18, 0x08
};
